<svg width="100%" viewBox="0 0 680 960" xmlns="http://www.w3.org/2000/svg">

  <defs>
    <linearGradient id="goldGrad" x1="0" y1="0" x2="1" y2="0">
      <stop offset="0%" stop-color="#8e6f24"/>
      <stop offset="50%" stop-color="#be9633"/>
      <stop offset="100%" stop-color="#d4b761"/>
    </linearGradient>

    <filter id="shadow">
      <feDropShadow dx="0" dy="12" stdDeviation="18"
        flood-color="#000000" flood-opacity="0.12"/>
    </filter>
  </defs>

  <!-- TOP GOLD LINE -->
  <rect x="0" y="0" width="680" height="3" fill="url(#goldGrad)"/>

  <!-- HANGER -->
  <rect x="290" y="85" width="100" height="14"
    fill="#fdfdfb" stroke="#e6e6e6" rx="4"/>

  <!-- CARD -->
  <rect x="56" y="110" width="568" height="780" rx="12"
    fill="#ffffff"
    stroke="#eeeeee"
    filter="url(#shadow)"/>

  <!-- TOP BORDER -->
  <rect x="56" y="110" width="568" height="3" fill="url(#goldGrad)"/>

  <!-- STARS -->
  <g fill="#be9633">
    <path d="M280,155 L283,164 L292,164 L285,170 L288,179 L280,173 L272,179 L275,170 L268,164 L277,164 Z"/>
    <path d="M310,155 L313,164 L322,164 L315,170 L318,179 L310,173 L302,179 L305,170 L298,164 L307,164 Z"/>
    <path d="M340,155 L343,164 L352,164 L345,170 L348,179 L340,173 L332,179 L335,170 L328,164 L337,164 Z"/>
    <path d="M370,155 L373,164 L382,164 L375,170 L378,179 L370,173 L362,179 L365,170 L358,164 L367,164 Z"/>
    <path d="M400,155 L403,164 L412,164 L405,170 L408,179 L400,173 L392,179 L395,170 L388,164 L397,164 Z"/>
  </g>

  <!-- QUOTE -->
  <text x="80" y="250"
    font-family="Georgia, serif"
    font-size="80"
    fill="#be9633"
    opacity="0.15">"</text>

  <!-- TEXT -->
  <text x="340" y="480"
    text-anchor="middle"
    font-family="Georgia, serif"
    font-size="17"
    fill="#1f1f1f"
    font-style="italic">

    <tspan x="340" dy="0">Mirav is the real deal. If you are wanting</tspan>
    <tspan x="340" dy="26"> to be activated into writing, then</tspan>
    <tspan x="340" dy="26"
    font-style="normal" font-weight="700" fill="#8e6f24"
    > definitely dive in!🔥</tspan>

  </text>

  <!-- CLOSING QUOTE -->
  <text x="590" y="720"
    font-family="Georgia, serif"
    font-size="80"
    fill="#be9633"
    opacity="0.15"
    text-anchor="end">"</text>

  <!-- SIGNATURE LINE -->
  <line x1="250" y1="800" x2="430" y2="800"
    stroke="#be9633" stroke-opacity="0.4"/>

  <!-- SIGNATURE -->
  <text x="340" y="860"
    text-anchor="middle"
    font-family="cursive"
    font-size="42"
    fill="#8e6f24">
    Nicky Hartel
  </text>

</svg>